<?xml version="1.0" standalone="no"?>
<!DOCTYPE svg PUBLIC "-//W3C//DTD SVG 20010904//EN"
 "http://www.w3.org/TR/2001/REC-SVG-20010904/DTD/svg10.dtd">
<svg version="1.0" xmlns="http://www.w3.org/2000/svg"
 width="260.000000pt" height="260.000000pt" viewBox="0 0 260.000000 260.000000"
 preserveAspectRatio="xMidYMid meet">
<metadata>
Created by potrace 1.11, written by Peter Selinger 2001-2013
</metadata>
<g transform="translate(0.000000,260.000000) scale(0.100000,-0.100000)"
fill="#000000" stroke="none">
<path d="M375 2520 c-183 -37 -288 -145 -340 -346 -22 -89 -17 -1822 6 -1900
22 -73 79 -147 137 -175 l47 -24 1005 -2 c662 -2 1020 1 1050 8 24 5 72 23
106 39 90 43 159 141 181 257 4 21 8 430 10 908 3 943 3 944 -52 1058 -31 66
-78 123 -118 144 -77 40 -126 42 -1077 41 -503 0 -933 -4 -955 -8z m1855 -253
c31 -16 51 -35 64 -62 19 -37 19 -71 19 -874 0 -592 -3 -848 -11 -876 -16 -57
-65 -101 -137 -121 -54 -16 -138 -18 -900 -20 -935 -2 -871 -7 -940 66 l-30
31 0 859 0 858 30 43 c17 24 53 55 83 72 l53 29 540 3 c297 2 542 5 544 7 2 2
147 4 322 6 317 2 319 2 363 -21z"/>
<path d="M585 2189 c-98 -8 -146 -30 -182 -83 l-28 -41 -3 -289 c-2 -187 0
-292 7 -299 14 -14 180 -21 212 -9 35 14 38 33 39 276 1 112 4 214 7 226 3 11
20 28 37 38 28 15 86 16 606 16 316 0 590 -3 609 -6 19 -4 43 -16 54 -27 19
-18 20 -36 23 -258 4 -289 -4 -274 139 -269 59 2 100 8 110 16 14 11 15 46 12
289 -3 237 -6 281 -21 312 -26 54 -50 75 -108 95 -49 16 -111 18 -743 18 -379
1 -726 -2 -770 -5z"/>
<path d="M1245 1959 c-158 -21 -173 -34 -135 -110 23 -44 23 -53 30 -389 l3
-105 -224 0 c-296 0 -369 -21 -369 -106 0 -46 11 -50 176 -65 43 -4 88 -8 99
-10 11 -1 89 -3 173 -3 l152 -1 0 -121 c0 -71 -5 -129 -11 -142 -7 -12 -30
-39 -53 -60 -123 -115 -219 -202 -225 -205 -8 -3 -35 36 -135 190 -32 49 -66
93 -77 98 -11 6 -63 10 -116 9 -78 -1 -99 -5 -114 -20 -25 -25 -24 -47 6 -92
14 -20 75 -119 136 -219 60 -101 119 -191 131 -200 16 -15 40 -18 129 -18
l108 0 63 52 c66 55 74 62 203 176 44 40 85 72 90 72 12 0 70 -47 206 -166
150 -130 142 -127 270 -130 130 -3 95 -37 283 269 138 226 146 246 102 269
-23 12 -190 17 -218 6 -9 -4 -60 -73 -113 -154 l-96 -147 -47 44 c-26 25 -85
80 -132 124 -47 44 -91 89 -99 99 -11 15 -14 47 -12 130 1 61 4 113 7 115 3 3
104 4 226 3 253 -3 317 5 360 48 50 51 26 129 -44 145 -35 8 -49 8 -346 5
-107 -1 -196 0 -198 3 -2 2 -5 128 -7 280 -2 262 -3 278 -22 297 -25 25 -95
38 -160 29z"/>
</g>
</svg>
