<?xml version="1.0" encoding="utf-8"?>
<!-- Generator: Adobe Illustrator 19.1.0, SVG Export Plug-In . SVG Version: 6.00 Build 0)  -->
<svg version="1.1" xmlns="http://www.w3.org/2000/svg" xmlns:xlink="http://www.w3.org/1999/xlink" x="0px" y="0px"
	 viewBox="0 0 840.7 792" style="enable-background:new 0 0 840.7 792;" xml:space="preserve">
<style type="text/css">
	.st0{fill:#FF4747;}
	.st1{fill:#1F1F1F;}
</style>
<g id="logo">
	<path id="frame" class="st0" d="M326.4,679.3c-65.2-17.5-130.5-35-195.7-52.4c-7.3-1.9-14.8-3.3-21.9-5.6c-5.4-1.7-10.6-4.1-15.5-7
		c-4.7-2.8-9.2-6.4-13.2-10.2c-2.9-2.8-5.5-6.3-7.1-10c-4.3-9.7-8.3-19.6-8.4-30.6c-0.1-5.7,0.5-11.3,1.6-17
		c1.5-7.6,2.5-15.3,3.7-23c0.2-1,0.3-2.1,0.5-3c9.8-35.9,19.6-71.7,29.3-107.6c8.8-32.6,17.4-65.3,26.2-97.9
		c8.5-31.8,17.1-63.6,25.7-95.5c2-7.4,4-14.8,5.9-22.2c3-11.8,6-23.6,8.9-35.4c4.3-16.9,12.6-31.7,23.4-45.2
		c3.7-4.7,7.4-9.4,11.4-13.8c4.7-5.4,10.8-9,17.2-12c5.6-2.6,11-5.3,16.7-7.7c2.3-1,4.9-1.6,7.3-1.8c9.6-0.6,19.2-1.5,28.7-1.3
		c7.4,0.2,15,1.2,22.2,3.2c125.6,33.5,251.2,67.2,376.7,100.9c2.6,0.7,5.3,1.2,7.9,2.1c8.4,3,16.8,5.9,25.1,9.2
		c7,2.8,13.5,6.6,19.4,11.5c7.3,6,11.6,13.9,14.9,22.4c5.6,14.4,8.1,29.4,7.1,44.9c-0.4,6.1-1.4,12.1-2.1,18.1
		c-1.9,16.1-7.3,31.4-11.5,46.9c-28.3,106.3-56.8,212.5-85.4,318.7c-1.3,4.8-3.6,9.4-5.4,14.2c-1.6,4.1-3.3,8.2-4.6,12.4
		c-2.4,7.9-6.5,14.7-11.6,21.2c-3.9,4.9-7.5,10-12.5,13.9c-3.9,3-8.2,5.6-12.1,8.6c-4.4,3.4-9.5,5-14.7,6.1
		c-9.7,2-19.4,3.8-29.3,3.7c-12-0.1-23.4-3.5-34.8-6.5C455.8,714,391.1,696.7,326.4,679.3C326.4,679.3,326.4,679.3,326.4,679.3z
		 M179.5,353.7c-15.6,58-31.1,116.1-46.7,174.1c-1.5,5.5-2.9,11-2.3,16.8c0.1,1.3,0,2.7,0.6,3.8c2,4.3,3.7,9,6.6,12.7
		c3.6,4.6,7.7,9.1,12.5,12.1c4.5,2.9,10.2,4.2,15.5,5.6c116.5,31.3,233.1,62.5,349.6,93.7c0.9,0.2,1.8,0.4,2.8,0.5
		c7.1,0.5,14.3,0.9,21.4,1.3c7,0.4,14.1,1.2,20.8-2.1c3-1.5,6.6-2.3,9.1-4.4c4.3-3.8,8.9-7.4,11.2-13.2c2.8-6.7,6-13.2,7.9-20.3
		c30.8-114.9,61.6-229.8,92.3-344.7c1.6-5.8,2.6-11.9,3-18c0.6-10.9-4.2-19.3-12.9-26c-7.6-5.9-16.6-8.8-25.5-11.2
		c-20.4-5.5-41-10.4-61.5-15.5c-21-5.2-42-10.4-63-15.6c-20.6-5.1-41.2-10.2-61.8-15.4c-14.3-3.6-28.6-7.2-42.8-10.9
		c-43.2-11.5-86.3-23.1-129.5-34.5c-4.2-1.1-8.9-1.6-13.1-0.9c-11.5,1.9-22.8,4.1-32.3,12.1c-6.4,5.5-11.1,11.9-13.5,19.7
		c-3.4,11.4-6.3,22.9-9.3,34.4C205.6,256.5,192.5,305.1,179.5,353.7z"/>
	<path id="lowerwt" class="st0" d="M267.9,529.4c7.6-4,14.9-7.8,22.2-11.6c14.4-7.6,28.9-15,43.3-22.8c5.2-2.8,10.4-5.4,14.5-10
		c3.8-4.3,5.8-9.1,6.7-14.5c0.4-2.3,0.8-4.6,1.4-6.9c3.1-11.9,6.3-23.7,9.6-35.9c-2.2-0.9-3.8-1.6-5.5-2.1
		c-19.9-5.4-39.8-10.5-59.7-16.1c-6.5-1.8-12.8-4.8-19.2-7.2c-5.9-2.2-11.8-4.4-17.6-6.6c-7.2-2.7-14.5-5.2-21.4-8.4
		c-6.7-3.1-8.5-10.6-4.8-17.4c2.7-4.9,6.4-8,12.4-9.2c9.3-1.9,18.5-0.6,27.8-0.4c9.2,0.1,17.8,3.5,26.5,6.3
		c5.7,1.8,11.5,3.2,17.2,4.8c14.9,4.2,29.8,8.5,44.7,12.7c2.2,0.6,4.3,1.3,6.5,2.1c1.6,0.5,2.4,0.1,2.8-1.6
		c4.2-17.5,8.4-35.1,12.6-52.6c0.5-2.1,1-4.2,1.5-6.3c2.9-11.5,5.8-23.1,8.7-34.6c1.3-5.2,1-10.3-0.2-15.5
		c-0.9-3.7-1.5-7.5-2.3-11.2c-0.6-2.9,0.5-5,2.9-6.7c3.3-2.4,7.2-2.8,11-2.8c6.6,0.1,13.2,0.6,19.7,1.7c7.3,1.1,14.7,2.5,21.8,4.7
		c7.3,2.2,13.8,6.3,17.6,13.4c1.6,3.1,2.1,6.3,1.2,9.7c-6.8,25.6-13.6,51.1-20.3,76.7c-3.6,13.9-7,27.8-10.6,42.3
		c4.1,1.7,7.9,3.8,12,4.9c26.9,6.8,53.9,13.4,80.8,20c4.9,1.2,9.6,2.9,14.5,3.8c7.7,1.4,14.1,5,19.9,10c5.3,4.5,7.4,9.9,6.1,16.9
		c-0.7,3.7-1.9,6.9-4,9.9c-3.9,5.5-9.6,7.3-15.8,7.7c-11.4,0.7-22.7,0-33.8-3.1c-24.3-6.8-48.5-13.8-72.7-20.7
		c-6.1-1.7-12.2-3.3-18.5-5c0-0.1-0.2,0.2-0.3,0.5c-3.5,11.8-7.1,23.5-10.6,35.3c-0.8,2.6-1.2,5.4-2.1,7.9
		c-2.4,6.6-1.3,12.8,2.3,18.6c7.8,12.6,15.7,25.1,23.6,37.6c4.1,6.6,8.2,13.1,12.3,19.7c2.6,4.2,5.2,8.3,7.9,12.7
		c4.7-4,9.3-7.8,13.8-11.8c13.9-12.3,27.8-24.6,41.4-37.2c4.7-4.4,9.8-6.3,16-4.8c9.5,2.3,19.1,4.4,28.5,7.1
		c4.1,1.2,7.9,3.5,11.8,5.4c6.4,3.1,7.6,13,2.2,18.2c-3.2,3.1-6.9,5.7-10.1,8.7c-15.8,14.8-31.6,29.7-47.3,44.6
		c-10,9.5-19.7,19.4-29.8,28.9c-3.7,3.5-8.9,4-13.6,2.8c-11.1-2.9-22.1-6.3-33.2-9.5c-2.7-0.8-5.4-1.7-7.9-2.8
		c-4.8-2.2-7.7-6.4-10.5-10.5c-6.9-9.9-13.6-19.8-20.4-29.8c-4.6-6.8-9.1-13.6-13.7-20.3c-6.1-8.8-12.3-17.5-18.4-26.4
		c-1.2-1.7-2.2-1.7-3.9-0.8c-11,5.6-22,11-33.1,16.4c-10.6,5.2-21.1,10.4-31.7,15.5c-8.6,4.1-17.3,8.1-26.2,11.8
		c-3.7,1.6-7.7,1.7-11.8,0.6c-11.4-3-22.8-6-34.3-8.6c-5.1-1.2-8.9-4.4-11.9-8c-1.9-2.3-2.1-6.1-3.1-9.2
		c-8.9-30.3-17.8-60.7-26.8-91c-1.4-4.7-3.2-9.4-4.9-14c-2.4-6.3-0.8-12.3,4.7-15.8c3.8-2.5,8.4-2.3,12.5-1.4
		c10,2.2,20,4.8,29.9,7.4c2.8,0.7,5.3,2.2,8,3.3c4.5,1.8,6.3,5.7,7.7,9.9c6.3,19.2,12.6,38.3,18.9,57.5
		C264.8,520.6,266.4,525,267.9,529.4z"/>
	<path id="uppera" class="st0" d="M459.5,208c43.8,11.7,87.6,23.5,131.4,35.2c5.8,1.6,11.6,3.2,17.5,4.7c9.9,2.5,19.8,5.5,28.2,11.3
		c5.6,3.9,12.4,7.1,15.1,14.1c3.2,8.5,5.8,17.1,4.7,26.4c-0.2,2.1-0.6,4.3-1.1,6.3c-9.3,35.7-18.7,71.4-28.1,107.1
		c-0.3,1.3-0.9,2.5-1.2,3.8c-1.2,5.5-6.8,7.5-11.7,6.3c-11.2-2.7-22.4-5.1-33.5-7.9c-10.5-2.7-13.5-9.3-11.3-18.5
		c5.1-21.6,11-43,16.5-64.4c2-7.9,4.4-15.7,6.2-23.6c1-4.1,1.7-8.5,1.5-12.7c-0.3-5.2-3.5-9.2-8.1-11.4c-5.4-2.6-11-4.7-16.6-6.9
		c-2.2-0.8-4.6-1.3-6.8-1.9c-22.8-6.3-45.7-12.6-68.5-19c-23.1-6.4-46.2-12.9-69.4-19.1c-15-4-30.2-7.7-45.3-11.6
		c-16.3-4.1-32.6-8.2-48.9-12.3c-4.1-1-8.2-2.1-12.4-2.6c-4.9-0.5-9.8-0.4-14.4,2.2c-3.9,2.2-5.2,6.1-6.8,9.7
		c-1.4,3.2-2.4,6.5-3.3,9.9c-7.1,26.2-14,52.4-21.2,78.5c-1.1,4.1-3.5,8-5.8,11.7c-3.1,4.9-8.3,5-13.2,4c-5.7-1.2-11.4-2.8-17-4.5
		c-6.5-2-12.9-4.1-19.3-6.3c-4.3-1.5-6.6-5.6-5.8-10.1c0.2-1.3,0.6-2.6,0.9-3.9c8.2-30.6,16.3-61.2,24.6-91.7
		c1.7-6.5,3.5-12.9,5.8-19.2c2.3-6.5,6.3-12,11.3-16.8c2.3-2.2,4.6-4.3,7-6.4c3.5-3.1,8-3.2,12.3-3.9c8.7-1.3,17.4-1.5,26,0.8
		c9.4,2.5,18.9,4.6,28.2,7.1C371.3,184.4,415.4,196.2,459.5,208z"/>
</g>
<g id="sig">
	<path id="aw12" class="st1" d="M442.3,548.8c0.5-0.7,1.1-1.3,1.5-2c3.3-5.9,6.4-11.8,9.8-17.6c2.4-4.2,6.3-7,10.5-9.1
		c7.2-3.6,14.6-6.8,22.7-7.7c3.3-0.4,6.3,0.6,8.1,3.3c2.1,2.9,2,6.4,0.4,9.6c-2.3,4.4-5.3,7.8-10.4,9.2c-2.1,0.6-4,1.7-5.9,2.7
		c-2.7,1.4-4.1,3.4-3.6,5c0.8,2.6,3.1,4.1,6.2,4.1c3.5,0,7.1-0.6,10.5,0.1c7.6,1.5,14,5.2,17.1,12.8c1.6,3.9,0.8,7.9,0,11.9
		c-1.7,8.5-8.4,13.3-14,19c-1.4,1.4-2.8,2.7-4.2,4c-7.9,7.4-17.6,11.6-27.7,14.9c-1.4,0.5-2.9,0.7-4.2,1.4
		c-5.3,2.8-10.6,1.8-15.9,0.5c-2-0.5-4.2-1.6-5.6-3.2c-2.8-3.1-5.1-6.7-7.7-10.1c-0.6-0.8-1.3-1.6-2.1-2.1c-1.6-0.9-3.3-1.7-5-2.5
		c-5.9-2.6-7-7.6-6.9-13.3c0.1-4.1,0.1-8.2,0.1-12.3c0-4.2-0.1-8.4-0.2-12.5c0-1.4-0.3-2.5-1.9-2.9c-1.5-0.3-2,0.8-2.8,1.7
		c-3.4,4.4-6.8,8.7-10.3,13c-1.2,1.5-2.3,3.2-3.5,4.6c-3.1,3.6-6,7.2-9.4,10.5c-4.6,4.6-10.2,4.8-15.4,0.9c-1.7-1.3-3.2-2.9-4.9-4.3
		c-0.5-0.4-1.2-0.7-1.8-1c-0.3,0.8-1,1.5-1,2.3c-0.1,3.6,0,7.3,0,10.9c0,2.7-0.9,4.8-3.4,6.1c-2.9,1.5-5.4,3.5-8.9,3.9
		c-3.1,0.3-5.5-0.8-7.8-2.6c-3.6-2.8-6.1-6.1-6.6-11.1c-0.7-7.6-2.1-15.2-3.3-22.8c-0.2-1.3-0.7-2.6-1.3-3.8c-1-2.1-3.1-2.4-4.5-0.5
		c-1.7,2.3-3.2,4.7-2.7,7.8c0.9,6,1.6,12,2.6,17.9c0.4,2.4,1.9,4.4,4.1,5.6c1.5,0.8,3,1.6,4.6,2.4c3.2,1.7,4,3.4,2,6.5
		c-1.8,2.7-3.8,5.5-6.4,7.4c-4.8,3.5-9.8,6.9-15.5,8.8c-6.1,2-8.4,0-10.1-5.1c-1.3-3.8-1.7-7.8-2.5-11.8c-1.1-5.7-2.2-11.4-3.4-17.1
		c-0.1-0.7-0.7-1.4-1.4-2.5c-0.8,1.3-1.3,2.1-1.8,3c-3.4,6.5-6.6,13.1-10.3,19.4c-2.7,4.6-7.3,7.5-11.8,10.2
		c-3,1.8-9.3,0.4-11.7-2.1c-2.1-2.2-4.4-4.2-7-6.7c-0.1,1.3-0.3,2-0.3,2.8c0.2,2.9,0.5,5.8,0.8,8.7c0.2,2.3-0.5,4.1-2.6,5.2
		c-4.4,2.3-8.8,4.7-13.3,7c-4.9,2.5-10.1-0.6-11.7-4.9c-1.1-3-2-6-1.8-9.3c0.1-3-0.5-6.1-0.6-9.2c-0.1-3.5-0.2-7,0.1-10.5
		c0.3-3.7-0.1-6.9-3.4-9.3c-1.8-1.3-3.3-3.2-5.3-5.2c0.1,3.5-0.1,6.5,0.2,9.4c0.6,6.9,1.4,13.7,2.1,20.6c0.2,2.2-0.2,4.1-2,5.6
		c-1.2,0.9-2.3,1.9-3.3,3.1c-2.9,3.4-6.8,4.9-10.9,5.7c-2.1,0.4-4.3,0.1-5.7-2.1c-1.8-2.8-3.9-5.5-5.8-8.2c-1.1-1.5-1.9-1.5-3.1,0.1
		c-3.3,4.4-6.3,9.2-10.1,13.1c-3.6,3.8-8.4,6.1-13.5,7.7c-1.8,0.6-3.8,0.9-5.5,1.7c-3.5,1.5-6.4,0.5-9.5-1.2
		c-6.6-3.6-9.5-9.1-9.8-16.4c-0.6-13.1,1-25.7,7.5-37.4c2.3-4.2,5.6-7.1,8.8-10.3c4.7-4.7,9.4-9.4,14.3-13.8c4.4-4,9.5-7,15.5-7.9
		c3.9-0.6,7.8,0.1,11.5,2c3.2,1.7,6.5,3,9.6,4.8c2.9,1.7,5.5,3.7,8.2,5.8c1.1,0.9,1.8,1.1,2.8,0c2.6-3.2,6.2-4.5,10.1-5.1
		c2.9-0.4,5.8-1,8.8-1.2c3.2-0.3,5.7,1.2,7.4,3.8c1.3,2.1,3.3,2.9,5.4,3.7c1.6,0.6,2.5,0.1,2.9-1.4c1-3.6,1.9-7.2,2.8-10.8
		c1.5-5.9,4-7.6,10.1-7.2c1.3,0.1,2.5,0.2,3.8,0.3c5,0.5,6.4,3.3,8,9.1c0.9,3.3,0.9,6.9,1.5,10.4c0.2,1.1,0.6,2.1,1.2,3.1
		c0.9,1.5,2.2,1.7,3.6,0.8c3.3-2.1,5.7-4.9,7.2-8.6c2.2-5.2,4.2-10.4,7.7-14.9c4.1-5.2,9.4-8.3,16-7.9c2,0.1,4,2.1,5.7,3.6
		c1.7,1.4,3.1,3,5.5,3.2c1.6,0.2,2.8-0.1,3.5-1.7c0.7-1.3,1.5-2.6,2.2-3.9c2.3-3.9,12.5-7.2,16.8-5.5c1.5,0.6,2.7,2.3,3.7,3.7
		c1.9,2.6,2,2.9,4.7,1.2c2.6-1.6,5.1-3.4,7.6-5.2c4.6-3.3,9.7-5.1,15.2-3.8c4.4,1,7.6,3.6,8.3,9.6c0.2,1.5,0.2,3,0.5,4.5
		c0.1,0.7,0.6,1.3,1,1.9c0.6-0.3,1.4-0.5,1.8-1c3-3.6,5.8-7.3,8.8-10.8c5-6.1,10.1-12,15.1-18.1c1.5-1.8,3.1-2.5,5.5-2.2
		c2.9,0.4,5.8,0.3,8.7,0.8c5.2,0.8,7.5,3.6,7.9,8.9c0.6,8.7,1.2,17.3,1.8,26c0.1,0.8,0.1,1.6,0.2,2.4
		C441.8,548.6,442,548.7,442.3,548.8z M441.3,564.6c0,1.1,0,1.7,0.1,2.2c0.8,3.9,2,7.5,4.5,10.7c2.8,3.7,5,7.8,9,10.4
		c1.3,0.8,2.8,1.7,4.2,1.6c10.2-0.5,17.5-6.1,23.1-14.2c1.5-2.3-0.7-7-3.2-7.1c-6.2-0.2-12.5-0.2-18.7-0.3
		c-4.2-0.1-8.5,0.2-12.6-1.3C445.7,566,443.6,565.4,441.3,564.6z M186.7,580.3c-1-1.9-1.7-3.4-2.5-4.9c-0.8-1.4-1.7-1.5-2.8-0.3
		c-1.6,1.8-3.2,3.6-4.8,5.3c-3.8,4-7.6,7.9-9.3,13.3c-1.2,3.5-2.4,7-3.4,10.6c-0.3,1-0.3,2.6,0.3,3.2c1.1,1.2,2.7,1.3,4.3,0.4
		c2.9-1.5,5.1-3.4,6.7-6.4c2.8-5.1,5.9-10.1,8.7-15.1C185,584.5,185.8,582.4,186.7,580.3z"/>
	<path id="aw11" class="st1" d="M169.9,425.5c-1.9,2.4-3.9,4.3-5.4,6.6c-2.2,3.3-4,6.8-5.9,10.3c-2.6,4.9-7.3,6.8-12.1,8.6
		c-5,1.9-8.9-0.3-12.4-3.8c-4.8-4.9-6.7-11-7.9-17.5c-1.3-6.8-2.6-13.7-3.1-20.6c-0.7-9.8-0.6-19.7-0.9-29.5
		c-0.1-2.4-0.3-4.8-0.6-7.2c-0.3-2.6-2.4-3.2-4.7-2c-4.7,2.6-7.2,6.4-8.4,11.6c-4.3,18.3-9.3,36.4-13.5,54.7
		c-1.3,5.8-8.6,10.8-13.1,11.3c-1.5,0.2-3,0.3-4.5,0.4c-4.1,0.3-5.7-0.3-7.3-4.1c-2.3-5.3-3.2-10.8-0.2-16.2c1.3-2.4,2.8-4.8,4.5-7
		c7.6-9.7,12.1-20.9,15.6-32.5c0.7-2.4,0.4-2.6-2.1-2.6c-7.5,0-15.1,1.3-22.6-0.3c-2-0.4-4-0.7-5.8-1.6c-5-2.3-6-5.5-5.9-12.4
		c0.1-2.9,1.1-5.8,2-8.7c0.4-1.1,1.4-2.1,2.3-2.9c3.7-3.3,7.7-4.1,12.7-3.3c6.5,1,13.2,1.1,19.8,1.2c2.7,0,5.4-0.8,8.1-1.6
		c0.9-0.2,1.9-1.2,2.2-2c4.3-11.6,8.7-23.2,12.5-35c2.2-6.8,3.5-13.9,5-20.8c4.5-20.4,9.1-40.7,13.3-61.2c1.1-5.4,1.1-11.1,1.6-16.6
		c0.3-3.6,0.5-7.1,1.1-10.7c0.7-4.3,0.2-8.5-1.3-12.5c-2.4-6.4-0.6-7.8,3.2-11.6c1.7-1.7,4-2.9,6.1-4.1c3.6-2,6.9-1.2,10.2,1
		c6.1,4.1,6.4,10.3,6.2,16.5c-0.4,10-4.5,19.3-6.4,29c-2.7,13.1-5.3,26.3-7.5,39.5c-2,12-3.7,24-5.2,36c-0.5,4-0.6,8-0.5,12
		c0.1,5.2,0.5,10.5,0.9,15.7c0.1,1.9,0.7,3.8,1.1,6.1c2.9-1.4,5.4-2.7,8-4c4.8-2.4,9.4-5.1,14.4-7.3c3.6-1.6,2.6-4.5,2.8-7
		c0.5-8.1,0.8-16.2,1-24.3c0.3-15,2.9-29.6,6.2-44.1c2.3-10.2,5.7-20.2,12.5-28.5c2.4-3,5-5.9,7.9-8.5c2.5-2.2,5.5-2.3,8.8-0.7
		c5.1,2.4,8.7,6,10.1,11.6c0.9,3.6,1.3,7.3,2,11c0.4,2.2,0.9,4.4,1,6.6c0.3,6.2,0.4,12.4,0.7,18.6c0.1,3.2,0.5,6.4,0.6,9.6
		c0.1,6.4,0,12.8,0.3,19.2c0.4,10.2-2.2,19.9-4.2,29.7c-2.3,10.8-5.6,21.3-10.4,31.3c-4.4,9.1-8.4,18.5-12,28
		c-2.3,6.1-3.9,12.5-3.2,19.3c0.7,6.8,0.8,13.8,2,20.5c0.8,4.3,3.1,8.3,4.8,12.5c0.6,1.6,1.5,3.1,2.2,4.7c1,2.4,0.5,3.8-1.4,5.6
		c-3,2.7-6.5,3.6-10.4,3.3c-1.2-0.1-2.8-1.2-3.5-2.3c-3.4-5-6.5-10.2-9.7-15.4C170.9,426.8,170.6,426.5,169.9,425.5z M165.7,340.8
		c-1.1,0.6-1.8,0.9-2.5,1.3c-2.6,1.7-5.3,3.4-7.9,5.1c-4.7,3-9.4,6.1-14.1,9.1c-1.3,0.8-2.2,1.7-2.1,3.6c0.4,6.7,0.6,13.4,0.9,20.1
		c0.1,3.1,0.4,6.3,0.3,9.4c-0.3,7,1.2,13.8,2.8,20.5c0.5,2.3,2.6,3.3,4.8,2.4c1.4-0.6,2.8-1.3,4.3-1.9c5.5-2.3,9.4-6.1,11.3-11.9
		c0.8-2.5,2-4.8,3-7.3c0.5-1.3,1.1-2.7,1.1-4c-0.5-10.8-1.2-21.7-1.9-32.5c0-0.7,0-1.5,0-2.2C165.7,348.8,165.7,345,165.7,340.8z
		 M183.2,354.2c0.2,0,0.4,0.1,0.6,0.1c0.4-0.7,0.9-1.3,1.2-2.1c2.6-5.6,5.3-11.2,7.6-16.9c7.2-17.9,9.6-36.5,8.6-55.7
		c-0.2-4.3,0-8.7-0.2-13c-0.4-8.7-0.9-17.4-1.5-26.2c-0.1-0.9-1.4-2.1-2.3-2.4c-1.4-0.5-2.2,0.7-2.5,1.9c-2.3,7.9-5.3,15.8-6.7,23.8
		c-2.2,12.1-3.5,24.4-4.8,36.7c-0.6,5.8-0.4,11.8-0.5,17.6c-0.1,5.3-0.1,10.6,0,15.9c0.1,6.2,0.2,12.4,0.4,18.6
		C182.8,353.1,183,353.7,183.2,354.2z"/>
	<path id="aw10" class="st1" d="M560.6,335.5c3-0.9,5.5-1.9,8.1-2.4c4.4-0.7,8,2,11.8,3.6c2.6,1.1,5,2.7,7.4,4.2
		c1.7,1.1,2.6,0.6,3.2-1.1c1.8-5.9,3.3-11.9,5.5-17.7c1.4-3.8,3.5-7.4,5.7-10.8c2.3-3.4,9.8-5.3,13.2-3c2.3,1.6,3.9,4.4,5.6,6.8
		c0.7,0.9,1.1,2.1,1.8,3.5c1.4-2,2.4-3.8,3.6-5.4c4.6-5.9,10-11.1,17.1-13.7c5-1.8,8.2-0.4,11.9,3.2c3.4,3.4,4.1,7.6,3.4,12
		c-0.6,3.5,0.8,6.1,2.6,8.7c0.5,0.8,1,1.6,1.7,2.7c0.8-0.7,1.4-1.2,1.9-1.8c10.1-12.5,20.3-25,30.3-37.7c3.5-4.5,7.8-7.1,13.3-7.8
		c4.6-0.5,9,0.6,12.8,3.1c4.2,2.8,5,7.2,4.5,11.7c-1.1,10.5-2.6,21-3.6,31.5c-0.9,8.7-1.5,17.5-1.8,26.3c-0.4,9.1-2.4,17.6-8.1,24.9
		c-1.8,2.3-4.6,4.1-7.3,5.3c-3.2,1.4-6.6-0.3-8.7-4.2c-1.2-2.3-2.1-5.3-1.8-7.9c1.5-11.9,3.5-23.8,5.2-35.8c1-6.8,1.7-13.7,2.4-20.6
		c0.2-1.9-0.8-2.7-2.4-1.6c-1.7,1.2-3.2,2.7-4.5,4.3c-3.1,3.8-6,7.8-9.1,11.7c-6.3,7.9-12.6,15.8-19,23.6c-1.5,1.8-3.3,3.4-5.3,4.8
		c-6.4,4.3-16.3,2.4-20.7-4.6c-1.8-3-3.2-6.2-4.8-9.3c-0.3-0.6-0.8-1-1.2-1.5c-0.5,0.4-1.1,0.8-1.3,1.3c-1.3,2.6-2.3,5.3-3.6,7.9
		c-3.2,6.6-6,13.4-9.7,19.7c-1.9,3.3-5.6,5.5-8,8.6c-3.4,4.2-8.1,4.5-12.6,4.2c-3.5-0.2-6.1,0.7-8.3,3.2c-3,3.6-12.4,5.8-17.5,1.8
		c-1.1-0.9-2.2-2.2-2.6-3.5c-1.2-3.2-2-6.5-2.9-9.9c-0.5-1.8-2.4-4-4-4.1c-1.4-0.2-3.8,1.8-4.6,3.4c-1.7,3.5-3.1,7.2-5.5,10.2
		c-3.7,4.7-8,8.7-14.2,10.4c-4.7,1.3-9.2,3.4-13.8,5c-6,2-11.3,0.1-15.8-3.9c-4.6-4.1-8.8-8.8-10-15c-0.7-3.6-0.3-7.5-0.3-11.3
		c0-7,2.9-13.1,5.6-19.4c2.7-6.4,6.2-12.4,10.9-17.4c3.4-3.8,7.9-6.6,12-9.7c1.8-1.3,4-2.1,5.8-3.3c5.9-4,12.2-3.7,18.4-1.4
		c3.6,1.3,5.5,4.7,6.2,8.4C560.3,328.8,560.3,332.1,560.6,335.5z M532.5,376.5c0.3-0.1,0.9-0.2,1.3-0.5c3.7-2.9,8.1-5.2,11-8.8
		c5.3-6.6,10-13.8,11.6-22.4c0.1-0.7-0.1-1.9-0.6-2c-1.3-0.6-2.8-1.2-4.2-1.2c-3.3,0.1-6.5,0.4-9.8,0.8c-6.9,0.8-11.8,4.2-13.9,11.1
		c-1.6,5.1-3.9,9.7-3.6,15.5C524.7,374.2,527.7,376.5,532.5,376.5z"/>
	<path id="aw9" class="st1" d="M359.6,276.9c3.4-0.5,6.7-0.7,9.7-1.6c4-1.2,7.2-0.4,10.1,2.3c2.9,2.8,2.4,6.3,1.6,9.6
		c-1,4.6-4,7.7-7.8,10.3c-2.3,1.6-4.7,3.2-5.6,6.1c-0.3,1-0.6,2-0.6,3c0.1,4.3,0.4,8.5,0.6,12.8c0.1,2.2-0.6,4-2.4,5.5
		c-3,2.4-6.4,4.1-10.2,4.8c-2.3,0.4-3.5,1.5-4.3,3.8c-7.1,21.7-14.2,43.4-21.5,65c-0.7,2.2-2.1,4.1-3.3,6.1
		c-1.1,1.9-2.4,3.6-3.4,5.5c-1.7,3.3-4.2,6.1-7.3,8c-1.9,1.2-4.4,1.7-6.7,2.2c-2.6,0.6-5.3,1.1-8,1.1c-1.8,0-3.6-0.6-5.3-1.2
		c-1.7-0.6-3.2-1.5-4.8-2.4c-2-1.2-2.8-0.2-3.3,1.7c-1.6,6.2-3.4,12.4-5,18.6c-1.3,4.9-2.8,9.5-5.4,13.9c-3.1,5.3-7.5,8.4-13.2,9.8
		c-0.1,0-0.2,0-0.2,0c-4.4,2.6-8,0.4-11.5-2c-3.8-2.6-5.3-6.8-6.3-11c-1-4.4-1.6-9-2.1-13.5c-0.3-2.9-0.3-5.8-0.3-8.7
		c-0.1-4.2-0.1-8.4-0.2-12.5c-0.2-6.9-0.7-13.7-0.8-20.6c-0.2-8.7-0.1-17.4-0.1-26.2c0-6.1-0.2-12.2-0.2-18.3
		c0-8.6,0.3-17.1,0.4-25.7c0-5.8-0.1-11.6-0.1-17.4c0-5.1,0.2-10.1,0.3-15.2c0.1-4.8,0.1-9.7,0.2-14.5c0.1-4.9,0.3-9.8,0.1-14.8
		c-0.1-2.1-0.6-4.3-1.3-6.2c-1.7-4.5-2.3-9.2-1.3-13.8c0.6-3.1,2-6.1,3.7-8.8c2.1-3.4,6.6-4.8,10.4-3.8c5.7,1.5,9.6,6.3,9.1,12.3
		c-0.5,5.4-1.5,10.7-2.6,16c-1,4.6-1.5,9-1.3,13.7c0.2,5.1-0.3,10.3-0.6,15.4c-0.3,5.9-0.8,11.9-0.9,17.8c-0.1,9.3,0,18.6,0.1,28
		c0.1,6.5,0.3,13,0.3,19.5c0,7.7-0.2,15.4-0.2,23c0,5,0.2,10,0.4,15c0.2,5,0.4,10,0.9,15c0.3,2.9,1,5.7,1.7,8.5
		c0.6,2.6,1.4,5.2,1.9,7.8c0.4,1.9,1.1,3.3,3.2,3.5c2.1,0.2,3-1.2,3.5-2.8c2.9-10.2,6.2-20.3,7.2-30.9c0.5-5.4,0.4-10.9,0.4-16.3
		c0-6.3-0.3-12.7-0.2-19c0-3.6,1.7-6.5,5.1-8c3.7-1.7,7.5-3.2,11.7-3.4c6.6-0.4,9.7,2.6,9.7,9.2c0,4,0.6,8,1.1,12
		c0.5,3.8,1.1,7.7,1.9,11.5c0.4,2,0.8,4.1,1.6,6c0.4,0.8,1.7,1.5,2.7,1.8c1.4,0.3,2.3-0.5,3-1.8c7.1-13.9,12.9-28.2,16.1-43.5
		c3-14.1,6.5-28,9.2-42.1c1.8-9.4,2.9-19,4.1-28.5c0.3-2.3,0.1-4.6-0.1-6.9c-0.4-6.7-0.5-13.3-1.4-19.9c-0.6-4.4-2.3-8.6-3.6-12.9
		c-2.3-7.7,2.4-17,9.9-19.5c1.8-0.6,4.8,0.7,6.5,2.7c2.5,3,3.8,6.5,4.2,10.4c0.4,4.1,1.3,8.2,1.4,12.3c0.2,6.5,0,13-0.3,19.4
		c-0.3,6.9-0.7,13.8-1.1,20.7C359.3,275.3,359.5,275.9,359.6,276.9z"/>
	<path id="aw8" class="st1" d="M665.5,499c2.1,0.9,3.9,1.7,5.7,2.6c3.5,1.7,7,3.4,9.4,6.6c2.8,3.8,3.1,8.2,3.1,12.6
		c0,2.4-0.6,4.8-0.5,7.1c0.1,1.6,0.6,3.3,1.4,4.6c1.1,2,3.4,2.2,5.3,0.9c6.1-4.1,12.1-8.2,18.2-12.2c1.1-0.8,2.2-1.2,3.4-0.1
		c1.2,1.1,0.8,2.2,0.3,3.5c-1.4,3.4-2.7,6.8-4.3,10.1c-0.6,1.3-1.6,2.3-2.5,3.4c-3.1,3.6-6.1,7.4-9.6,10.8c-2.2,2.2-4.9,4-7.6,5.5
		c-5.9,3.4-12.3,5.1-19,2.6c-4.8-1.8-7.7-5.5-9.2-10.3c-0.6-2.2-0.8-4.5-1.1-6.8c-0.2-1.7-1.9-3.4-3.6-3.2c-0.6,0.1-1.2,0.9-1.6,1.5
		c-3,4.5-5.2,9.6-10,12.5c-4.2,2.6-8.3,5.8-13.4,6.5c-3.8,0.5-7.7,0.7-11.6,0.6c-6.1-0.1-11.7,0.9-15.9,5.9
		c-2.3,2.7-4.9,4.7-8.5,5.4c-2.1,0.4-4.2,1.2-6.1,2.2c-2.9,1.4-5.8,1.2-8.8,0.7c-1.3-0.2-2.6-1.2-3.8-2.1c-4.4-3.4-5.4-8.7-7.5-13.5
		c-0.4-0.8-0.7-1.7-1-2.5c-1.3-3.1-2.5-3.5-5.1-1.2c-4.5,4-9.1,7.8-13.2,12.1c-5.3,5.4-11.9,8.1-19,9.7c-4.7,1-11.8-2.1-14.1-6.5
		c-3.8-7.3-4-14.6-2.4-22.3c2.1-10.1,7.3-18.7,12.6-27.2c4.4-7.2,11.3-10.7,19.2-12.3c6.7-1.3,13.4-2,20.2-2.7
		c2-0.2,4.2,0.2,6.2,0.8c6.7,2.1,13.6,4,17.6,10.6c1,1.7,2.1,3.2,3.2,4.8c2.3,3.3,1.9,7.1,2.1,10.8c0.2,3.7,0.4,7.5,0.7,11.2
		c0.1,0.6,1,1.7,1.3,1.7c1.4-0.3,3.1-0.6,3.9-1.6c1.2-1.6,2.1-3.6,2.6-5.6c1.7-6,3-12.2,4.7-18.2c2.6-8.7,7.4-16.1,14.2-22.2
		c4.2-3.7,8.6-7.1,12.9-10.7c5.3-4.4,11.8-5.9,18.4-6c4.9,0,12,2.6,13.6,8.7C667.6,491.5,668.3,495.3,665.5,499z M534.2,543.8
		c0.1,0.7,0.1,1.4,0.2,2c0.4,2.2,3,4.3,4.8,3.8c4.5-1.2,8.8-2.7,11.7-6.8c1.4-1.9,3.1-3.6,4.8-5.4c3.3-3.5,3.3-7.1,0.1-11.4
		c-2-2.7-6.7-3.4-10.2-2c-4.2,1.8-5.7,5.8-7.9,9.1C535.6,536.4,533.6,539.8,534.2,543.8z M629.4,527.6c0.3,3.8,2.1,4.8,4.6,2.7
		c3.2-2.7,6.2-5.6,9-8.7c3.1-3.5,3.8-7.8,2.3-12.4c-0.8-2.5-2.8-3-4.6-1.1c-2.5,2.6-5,5.3-7.3,8.2
		C630.5,519.7,629.4,523.7,629.4,527.6z"/>
	<path id="aw7_2_" class="st1" d="M47.1,538c-0.4-4.4-0.7-8.8-1.2-13.2c-0.8-7.2,1-14,3.1-20.8c1.7-5.3,6-8.1,10.7-10.3
		c12.6-5.9,25.1-11.8,37.9-17.3c2.5-1.1,5.9-0.8,8.7-0.1c6,1.4,11.7-0.5,17.5-1.1c3-0.4,6-1,9.1-1.4c6.9-0.9,13.8-1.8,20.7-2.8
		c8.9-1.3,17.9-2.8,26.8-4.1c7.7-1.1,15.4-2.1,23.1-2.9c4.1-0.4,8,0.5,11.4,3.1c3.2,2.5,3.2,5.7,0.8,8.9c-2.9,3.8-7,4.1-10.9,4.6
		c-10.5,1.5-21.1,2.7-31.6,4.2c-7.3,1-14.6,2-21.9,3.3c-3.4,0.6-6.8,1.7-10.1,2.7c-4.9,1.4-9.7,2.9-14.5,4.4c-2.3,0.7-3.1,2-2.8,4.5
		c1.3,10.6,2.7,21.2,3.7,31.9c0.9,10.5,1.7,21.1,1.8,31.6c0.2,12.2-1.8,24.1-5,35.9c-3,11.1-5.1,22.5-8,33.7
		c-2,7.6-4.4,15.2-7.2,22.6c-1.9,4.9-4.4,9.7-7.5,13.9c-3.7,4.8-9.3,7.4-14.7,10c-2.2,1.1-8.1-1.1-9.8-3.2c-2.3-2.9-4.5-6-7-8.7
		c-3.2-3.4-4-7.7-5.3-11.9c-2-6.8-3.4-13.7-4.2-20.8c-0.9-7.7-2.2-15.4-3.3-23.1c-1.1-7.8-2.3-15.5-3.4-23.3
		c-1.1-7.7-2.3-15.4-3.4-23.1c-1.3-9-2.4-18.1-3.6-27.1C46.8,538,46.9,538,47.1,538z M68.4,622c-0.4,8.2,2.1,15.3,4,22.6
		c1.3,4.7,5,7.7,8.6,10.6c1.5,1.2,3.5,1,5-0.2c1.5-1.1,3.1-2.3,3.9-3.9c2.1-4.3,4-8.7,5.4-13.2c1.5-4.7,2.8-9.6,3.7-14.5
		c2.2-11.7,4-23.5,6.3-35.2c2.9-14.3,3.2-28.6,1.8-43c-0.9-9.2-2.1-18.3-3.3-27.4c-0.4-3.2-0.9-6.7-4-8.6c-2.3-1.4-4.8-2.7-7.4-3.5
		c-4.4-1.4-9.1-1.7-13.4-0.1c-5.7,2.1-11.4,4.4-16,8.7c-2.8,2.7-5.5,5.5-6,9.4c-0.7,5.5-1.4,11.2-1.1,16.7c0.6,9.4,1.9,18.9,3,28.3
		c0.2,1.6,0.7,3.2,1,4.8c0.9,4.7,1.9,9.3,2.7,14c0.8,4.8,1.5,9.7,2.3,14.6C66.2,608.9,67.4,615.6,68.4,622z"/>
	<path id="aw6_2_" class="st1" d="M384.8,403.7c0.2-5.6,0.4-11.3,0.7-16.9c0.4-7.4,0.6-14.7,1.3-22.1c1.4-14.3,3-28.6,4.5-42.8
		c1.5-13.5,3-27.1,4.4-40.6c1.8-17.5,2.9-35,5.7-52.4c1.1-6.7,1.1-13.5,1.5-20.2c0.3-5.1,0.6-10.3,0.9-15.4c0-0.7,0.1-1.4,0.5-1.9
		c3-4.2,5.9-8.5,10.7-10.9c3-1.5,5.9-1.1,8.3,0.4c3.4,2.1,6.2,4.9,7.2,9.1c0.7,2.6,0.3,4.9-1,7.1c-1.5,2.4-3,4.8-4.7,7.1
		c-2.2,3-2.3,6.5-2.9,9.9c-2,10.9-4.2,21.8-6,32.7c-1.3,8.1-2,16.4-2.9,24.6c-1.3,12.3-2.7,24.5-3.9,36.8
		c-0.9,9.3-1.6,18.5-2.2,27.8c-0.6,7.9-1.1,15.9-1.4,23.8c-0.3,7.3-0.3,14.6-0.4,21.9c-0.1,4.8-0.3,9.5,0,14.3
		c0.2,4.4,2.7,5.9,6.8,4.4c3.1-1.2,5.4-3.3,7.1-6.2c0.4-0.7,1.3-1.2,2-1.7c0.5,0.8,1.5,1.5,1.6,2.4c1.1,9.4-0.6,18.2-6.6,25.7
		c-4,5.1-9.6,7.8-16,8.5c-3.8,0.4-6.4-2.2-8.3-5.2c-3.8-6.2-6.6-12.8-6.3-20.3C385.3,403.7,385.1,403.7,384.8,403.7z"/>
	<path id="aw5_2_" class="st1" d="M740.8,490.6c1.7-2.2,3.1-3.9,4.4-5.7c5.7-7.9,11.4-15.7,17-23.7c5.8-8.3,11.3-16.7,17.2-24.9
		c3.8-5.4,8.4-10.2,13.6-14.2c1.3-1,2.9-1.6,4.4-2.1c4.2-1.5,8.4-3.2,12.7-4.3c4.8-1.2,9.1,0.1,13.4,2.5c5.4,3,7.1,8.3,9,13.4
		c0.4,0.9-0.1,2.6-0.8,3.4c-3.8,4.1-7.8,8.1-11.8,12c-1.5,1.5-3.1,1.3-4.7-0.2c-2.2-2.1-4.7-4-6.8-6.3c-2.6-2.8-7.2-2.2-10,0.8
		c-4.8,5.1-8.3,11.1-12,16.9c-5,7.8-10.3,15.4-15.6,23c-7.3,10.7-13.8,21.8-19.7,33.3c-2.8,5.4-5.8,10.9-9.5,15.7
		c-2.9,3.7-7.4,5.7-12.1,6.8c-0.7,0.2-1.6-0.3-2.4-0.5c-1.1-0.3-2.1-1-3.2-1.1c-3.3-0.3-5.2-2.4-6.8-5c-1.7-2.7-1.9-5.5-1.9-8.5
		c0-5.6,0.3-11.3-1.1-16.6c-1.3-5.3-4.1-10.2-11-11.1c-6.6-0.8-9.2-9.5-6.6-14.2c3.7-6.9,9.8-9.2,16.7-10.6
		c5.9-1.2,11.4,0.3,16.9,2.2c1.3,0.5,2.7,1.7,3.4,3c2.1,4.2,3.9,8.6,5.8,12.8C739.7,488.3,740.1,489.2,740.8,490.6z"/>
	<path id="aw4_2_" class="st1" d="M461.9,167.1c1.3,0.8,2.8,1.5,3.8,2.6c1.6,1.8,2.8,4,4.2,6c1.1,1.5,1.1,3.1,0.7,4.9
		c-2.8,12-6.1,23.9-8.3,36c-2.6,14.3-4.5,28.7-6.2,43.1c-1.7,13.7-2.9,27.5-4,41.3c-0.8,9.5-1.2,19-1.7,28.5
		c-0.5,8.8-1,17.7-1.2,26.5c-0.2,8.1,0.2,16.1,0.2,24.2c0,5.4,2.8,8.5,7.7,10.1c1,0.3,2.2,0.7,3,1.4c0.7,0.7,1.2,1.9,1.2,2.9
		c0,2-0.4,4-0.6,6c-0.5,3.8-3.6,7.4-7.5,8.2c-2.7,0.6-5.6,1.4-8.3,1.4c-5-0.1-8.1-3.5-10.5-7.4c-1.1-1.8-2-4-2.1-6
		c-0.4-8.8-0.5-17.6-0.6-26.4c-0.1-6.9-0.2-13.7,0.1-20.6c0.2-6.2,0.9-12.3,1.4-18.5c0.8-9.9,1.6-19.7,2.5-29.6
		c1.1-11.7,2.3-23.4,3.4-35.1c0.7-7.3,1.6-14.6,2.4-22c0.7-6.2,1.6-12.4,2.2-18.6c1.5-15.3,2.9-30.5,4.5-45.8
		c0.2-1.7,1.2-3.6,2.4-4.8c2.7-2.6,5.8-4.9,8.7-7.2c0.6-0.5,1.5-0.5,2.3-0.8C461.6,167.4,461.8,167.2,461.9,167.1z"/>
	<path id="aw3_2_" class="st1" d="M471.2,390.5c0.1-3.6,0.2-8.2,0.4-12.8c0.5-12.8,3.3-25.4,4.8-38c0.8-6.7,1.5-13.3,2.9-19.9
		c1.2-6.1,3.6-11.9,8.5-16.1c3.4-2.9,9.2-3.3,12,0c1.3,1.5,1.9,4.1,2,6.2c0.1,3.5-0.4,7.1-0.8,10.7c-0.7,6.6-1.4,13.2-2.4,19.7
		c-1.2,8.2-3,16.4-4,24.7c-0.4,3.5-0.1,7.3,1,10.6c1.5,4.1,1.2,8,0.5,11.9c-0.8,4.8-2,9.6-5.8,13.1c-3.6,3.4-8,4.8-12.9,4.5
		c-2.7-0.2-4.2-2.3-4.8-4.7C472.1,397.4,471.8,394.4,471.2,390.5z"/>
	<path id="aw2_2_" class="st1" d="M348.4,398.5c-0.5-4.1-1.2-8.1-1.6-12.2c-0.4-4.5-0.3-9,1.9-13.3c3-5.7,7.7-9.1,13.9-10.1
		c3.6-0.6,8.2,2.7,9.5,6c1.6,4.3,0.8,8.7,0.9,13c0.1,3.6,0.5,7.1,0.8,10.7c0.4,4.7,2.5,8.8,4.7,12.9c1,2,1.1,4.2-0.2,6.4
		c-3.1,5-6.2,9.8-11.1,13.2c-5.9,4.1-13.4,2.9-15.2-5.3c-0.8-3.6-1.6-7.1-2.2-10.7c-0.6-3.5-1-7.1-1.6-10.6
		C348.3,398.6,348.3,398.5,348.4,398.5z"/>
	<path id="aw1_2_" class="st1" d="M507.6,263.2c0.3,4.1-1.7,7.4-3.4,10.8c-3,6.1-8.1,10.1-13.9,13.2c-5.4,2.8-13.5-0.7-15.4-6.5
		c-2.7-8.1-1-15,5.1-21c3.4-3.3,7.3-5.6,11.5-7.6c6.6-3.1,11.5-0.1,14.5,5.8C506.7,259.6,507.1,261.4,507.6,263.2z"/>
</g>
</svg>